REM MD5 a95d03d2dee947976867966909997e37
FILE "Treasures of the Deep (Germany).bin" BINARY
  TRACK 01 MODE2/2352
    INDEX 01 00:00:00
  TRACK 02 AUDIO
    INDEX 00 42:45:15
    INDEX 01 42:47:15
  TRACK 03 AUDIO
    INDEX 00 45:18:70
    INDEX 01 45:20:70
REM LEADOUT 47:16:25
